<svg xmlns="http://www.w3.org/2000/svg" viewBox="0 0 880 160" fill="none"><rect x="12" y="12" width="20" height="20" rx="2" stroke="#18323B" stroke-width="2" opacity="0.5"/><circle cx="66" cy="22" r="6" fill="#18323B" opacity="0.5"/><rect x="100" y="12" width="20" height="20" rx="2" fill="#007C89" opacity="0.9"/><line x1="144" y1="32" x2="164" y2="12" stroke="#18323B" stroke-width="2" opacity="0.5"/><circle cx="198" cy="22" r="10" stroke="#18323B" stroke-width="2" opacity="0.5"/><rect x="232" y="12" width="20" height="20" rx="2" stroke="#18323B" stroke-width="2" opacity="0.5"/><circle cx="286" cy="22" r="6" fill="#18323B" opacity="0.5"/><rect x="320" y="12" width="20" height="20" rx="2" fill="#18323B" opacity="0.5"/><line x1="364" y1="32" x2="384" y2="12" stroke="#18323B" stroke-width="2" opacity="0.5"/><circle cx="418" cy="22" r="10" stroke="#18323B" stroke-width="2" opacity="0.5"/><rect x="452" y="12" width="20" height="20" rx="2" stroke="#18323B" stroke-width="2" opacity="0.5"/><circle cx="506" cy="22" r="6" fill="#18323B" opacity="0.5"/><rect x="540" y="12" width="20" height="20" rx="2" fill="#18323B" opacity="0.5"/><line x1="584" y1="32" x2="604" y2="12" stroke="#18323B" stroke-width="2" opacity="0.5"/><circle cx="638" cy="22" r="10" stroke="#18323B" stroke-width="2" opacity="0.5"/><rect x="672" y="12" width="20" height="20" rx="2" stroke="#007C89" stroke-width="2" opacity="0.9"/><circle cx="726" cy="22" r="6" fill="#18323B" opacity="0.5"/><rect x="760" y="12" width="20" height="20" rx="2" fill="#18323B" opacity="0.5"/><line x1="804" y1="32" x2="824" y2="12" stroke="#18323B" stroke-width="2" opacity="0.5"/><circle cx="858" cy="22" r="10" stroke="#18323B" stroke-width="2" opacity="0.5"/><circle cx="22" cy="66" r="10" stroke="#18323B" stroke-width="2" opacity="0.5"/><rect x="56" y="56" width="20" height="20" rx="2" stroke="#18323B" stroke-width="2" opacity="0.5"/><circle cx="110" cy="66" r="6" fill="#18323B" opacity="0.5"/><rect x="144" y="56" width="20" height="20" rx="2" fill="#18323B" opacity="0.5"/><line x1="188" y1="76" x2="208" y2="56" stroke="#18323B" stroke-width="2" opacity="0.5"/><circle cx="242" cy="66" r="10" stroke="#18323B" stroke-width="2" opacity="0.5"/><rect x="276" y="56" width="20" height="20" rx="2" stroke="#007C89" stroke-width="2" opacity="0.9"/><circle cx="330" cy="66" r="6" fill="#18323B" opacity="0.5"/><rect x="364" y="56" width="20" height="20" rx="2" fill="#18323B" opacity="0.5"/><line x1="408" y1="76" x2="428" y2="56" stroke="#18323B" stroke-width="2" opacity="0.5"/><circle cx="462" cy="66" r="10" stroke="#18323B" stroke-width="2" opacity="0.5"/><rect x="496" y="56" width="20" height="20" rx="2" stroke="#18323B" stroke-width="2" opacity="0.5"/><circle cx="550" cy="66" r="6" fill="#18323B" opacity="0.5"/><rect x="584" y="56" width="20" height="20" rx="2" fill="#007C89" opacity="0.9"/><line x1="628" y1="76" x2="648" y2="56" stroke="#18323B" stroke-width="2" opacity="0.5"/><circle cx="682" cy="66" r="10" stroke="#18323B" stroke-width="2" opacity="0.5"/><rect x="716" y="56" width="20" height="20" rx="2" stroke="#18323B" stroke-width="2" opacity="0.5"/><circle cx="770" cy="66" r="6" fill="#18323B" opacity="0.5"/><rect x="804" y="56" width="20" height="20" rx="2" fill="#18323B" opacity="0.5"/><line x1="848" y1="76" x2="868" y2="56" stroke="#18323B" stroke-width="2" opacity="0.5"/><line x1="12" y1="120" x2="32" y2="100" stroke="#18323B" stroke-width="2" opacity="0.5"/><circle cx="66" cy="110" r="10" stroke="#18323B" stroke-width="2" opacity="0.5"/><rect x="100" y="100" width="20" height="20" rx="2" stroke="#18323B" stroke-width="2" opacity="0.5"/><circle cx="154" cy="110" r="6" fill="#18323B" opacity="0.5"/><rect x="188" y="100" width="20" height="20" rx="2" fill="#18323B" opacity="0.5"/><line x1="232" y1="120" x2="252" y2="100" stroke="#18323B" stroke-width="2" opacity="0.5"/><circle cx="286" cy="110" r="10" stroke="#18323B" stroke-width="2" opacity="0.5"/><rect x="320" y="100" width="20" height="20" rx="2" stroke="#18323B" stroke-width="2" opacity="0.5"/><circle cx="374" cy="110" r="6" fill="#18323B" opacity="0.5"/><rect x="408" y="100" width="20" height="20" rx="2" fill="#18323B" opacity="0.5"/><line x1="452" y1="120" x2="472" y2="100" stroke="#18323B" stroke-width="2" opacity="0.5"/><circle cx="506" cy="110" r="10" stroke="#E7B75F" stroke-width="2" opacity="0.9"/><rect x="540" y="100" width="20" height="20" rx="2" stroke="#18323B" stroke-width="2" opacity="0.5"/><circle cx="594" cy="110" r="6" fill="#18323B" opacity="0.5"/><rect x="628" y="100" width="20" height="20" rx="2" fill="#18323B" opacity="0.5"/><line x1="672" y1="120" x2="692" y2="100" stroke="#18323B" stroke-width="2" opacity="0.5"/><circle cx="726" cy="110" r="10" stroke="#18323B" stroke-width="2" opacity="0.5"/><rect x="760" y="100" width="20" height="20" rx="2" stroke="#18323B" stroke-width="2" opacity="0.5"/><circle cx="814" cy="110" r="6" fill="#18323B" opacity="0.5"/><rect x="848" y="100" width="20" height="20" rx="2" fill="#18323B" opacity="0.5"/></svg>